# Wavefront Obj file
# 
# verts: 28 uv-s: 88
mtllib tree_mesh.mtl

g default

v 0.000000 2.473326 -3.315937
v -3.315937 2.473326 0.000000
v 0.000000 2.473326 3.315937
v 3.315937 2.473326 0.000000
v 0.000000 8.052611 0.000000
v 0.000000 4.329928 -2.695124
v -2.695124 4.329928 0.000000
v 0.000000 4.329928 2.695124
v 2.695124 4.329928 0.000000
v 0.000000 8.864655 0.000000
v 0.000000 6.265640 -2.012287
v -2.012287 6.265640 0.000000
v 0.000000 6.265640 2.012287
v 2.012287 6.265640 0.000000
v 0.000000 9.651447 0.000000
v 0.000000 7.624546 -1.668689
v -1.668689 7.624546 0.000000
v 0.000000 7.624546 1.668689
v 1.668689 7.624546 0.000000
v 0.000000 10.432225 0.000000
v -0.702565 0.000000 1.003296
v 0.810713 0.000000 1.003296
v -0.394510 4.645596 0.703061
v 0.502658 4.645596 0.703061
v -0.394510 4.645596 -0.171329
v 0.502658 4.645596 -0.171329
v -0.702565 0.000000 -0.471564
v 0.810713 0.000000 -0.471564
# 28 positions

vt 0.128664 0.149123
vt 0.388910 0.149123
vt 0.388910 0.409369
vt 0.128664 0.409369
vt 0.104018 0.747330
vt 0.336990 0.631346
vt 0.370187 0.990000
vt 0.605365 0.756764
vt 0.362695 0.662746
vt 0.605365 0.396577
vt 0.362695 0.662746
vt 0.246712 0.429774
vt 0.605365 0.396577
vt 0.010000 0.990000
vt 0.104018 0.747330
vt 0.370187 0.990000
vt 0.375429 0.973633
vt 0.375429 0.762110
vt 0.586952 0.762110
vt 0.586952 0.973633
vt 0.207237 0.450591
vt 0.301506 0.639946
vt 0.010000 0.666927
vt 0.787253 0.474426
vt 0.597898 0.380157
vt 0.814234 0.182920
vt 0.597898 0.380157
vt 0.521482 0.182920
vt 0.814234 0.182920
vt 0.010000 0.374175
vt 0.207237 0.450591
vt 0.010000 0.666927
vt 0.771086 0.644238
vt 0.771086 0.802169
vt 0.613154 0.802169
vt 0.613154 0.644238
vt 0.760856 0.578999
vt 0.613591 0.636054
vt 0.613591 0.417474
vt 0.917618 0.057056
vt 0.917618 0.214987
vt 0.713800 0.136022
vt 0.904071 0.482610
vt 0.847016 0.629875
vt 0.685491 0.482610
vt 0.983862 0.617246
vt 0.983862 0.775177
vt 0.780044 0.696212
vt 0.126593 0.140965
vt 0.126593 0.010000
vt 0.257557 0.010000
vt 0.257557 0.140965
vt 0.716811 0.942687
vt 0.594691 0.990000
vt 0.594691 0.808742
vt 0.396681 0.224823
vt 0.518800 0.272136
vt 0.396681 0.406080
vt 0.518800 0.272136
vt 0.577167 0.389375
vt 0.396681 0.406080
vt 0.775177 0.825448
vt 0.716811 0.942687
vt 0.594691 0.808742
vt 0.034551 0.119916
vt 0.118532 0.119916
vt 0.101437 0.378267
vt 0.051647 0.378267
vt 0.010000 0.787453
vt 0.059789 0.787453
vt 0.059789 0.835978
vt 0.010000 0.835978
vt 0.792273 0.731649
vt 0.842063 0.731649
vt 0.859159 0.990000
vt 0.775177 0.990000
vt 0.859048 0.877572
vt 0.859048 0.793591
vt 0.940898 0.793591
vt 0.940898 0.877572
vt 0.885658 0.475018
vt 0.803808 0.475018
vt 0.820471 0.216639
vt 0.868995 0.216639
vt 0.396681 0.183916
vt 0.396681 0.102067
vt 0.655060 0.118729
vt 0.655060 0.167254
# 88 texture coordinates

vn -0.000000 -1.000000 -0.000000
vn -0.000000 -1.000000 -0.000000
vn -0.000000 -1.000000 -0.000000
vn -0.000000 -1.000000 -0.000000
vn -0.651881 0.387432 -0.651881
vn -0.651881 0.387432 -0.651881
vn -0.651881 0.387432 -0.651881
vn -0.651881 0.387432 0.651881
vn -0.651881 0.387432 0.651881
vn -0.651881 0.387432 0.651881
vn 0.651881 0.387432 0.651881
vn 0.651881 0.387432 0.651881
vn 0.651881 0.387432 0.651881
vn 0.651881 0.387432 -0.651881
vn 0.651881 0.387432 -0.651881
vn 0.651881 0.387432 -0.651881
vn -0.000000 -1.000000 -0.000000
vn -0.000000 -1.000000 -0.000000
vn -0.000000 -1.000000 -0.000000
vn -0.000000 -1.000000 -0.000000
vn -0.651881 0.387432 -0.651881
vn -0.651881 0.387432 -0.651881
vn -0.651881 0.387432 -0.651881
vn -0.651881 0.387432 0.651881
vn -0.651881 0.387432 0.651881
vn -0.651881 0.387432 0.651881
vn 0.651881 0.387432 0.651881
vn 0.651881 0.387432 0.651881
vn 0.651881 0.387432 0.651881
vn 0.651881 0.387432 -0.651881
vn 0.651881 0.387432 -0.651881
vn 0.651881 0.387432 -0.651881
vn -0.000000 -1.000000 -0.000000
vn -0.000000 -1.000000 -0.000000
vn -0.000000 -1.000000 -0.000000
vn -0.000000 -1.000000 -0.000000
vn -0.651881 0.387432 -0.651881
vn -0.651881 0.387432 -0.651881
vn -0.651881 0.387432 -0.651881
vn -0.651881 0.387432 0.651881
vn -0.651881 0.387432 0.651881
vn -0.651881 0.387432 0.651881
vn 0.651881 0.387432 0.651881
vn 0.651881 0.387432 0.651881
vn 0.651881 0.387432 0.651881
vn 0.651881 0.387432 -0.651881
vn 0.651881 0.387432 -0.651881
vn 0.651881 0.387432 -0.651881
vn -0.000000 -1.000000 -0.000000
vn -0.000000 -1.000000 -0.000000
vn -0.000000 -1.000000 -0.000000
vn -0.000000 -1.000000 -0.000000
vn -0.651880 0.387432 -0.651880
vn -0.651880 0.387432 -0.651880
vn -0.651880 0.387432 -0.651880
vn -0.651880 0.387432 0.651880
vn -0.651880 0.387432 0.651880
vn -0.651880 0.387432 0.651880
vn 0.651880 0.387432 0.651880
vn 0.651880 0.387432 0.651880
vn 0.651880 0.387432 0.651880
vn 0.651880 0.387432 -0.651880
vn 0.651880 0.387432 -0.651880
vn 0.651880 0.387432 -0.651880
vn -0.000000 0.064493 0.997918
vn -0.000000 0.064493 0.997918
vn -0.000000 0.064493 0.997918
vn -0.000000 0.064493 0.997918
vn -0.000000 1.000000 -0.000000
vn -0.000000 1.000000 -0.000000
vn -0.000000 1.000000 -0.000000
vn -0.000000 1.000000 -0.000000
vn -0.000000 0.064493 -0.997918
vn -0.000000 0.064493 -0.997918
vn -0.000000 0.064493 -0.997918
vn -0.000000 0.064493 -0.997918
vn -0.000000 -1.000000 -0.000000
vn -0.000000 -1.000000 -0.000000
vn -0.000000 -1.000000 -0.000000
vn -0.000000 -1.000000 -0.000000
vn 0.997809 0.066166 -0.000000
vn 0.997809 0.066166 -0.000000
vn 0.997809 0.066166 -0.000000
vn 0.997809 0.066166 -0.000000
vn -0.997809 0.066166 -0.000000
vn -0.997809 0.066166 -0.000000
vn -0.997809 0.066166 -0.000000
vn -0.997809 0.066166 -0.000000
# 88 normals

g polySurface1

# 0 positions

# 0 texture coordinates

# 0 normals

usemtl initialShadingGroup
s 1
f 1/1/1 4/2/2 3/3/3 2/4/4
s 2
f 1/5/5 2/6/6 5/7/7
s 3
f 2/8/8 3/9/9 5/10/10
s 4
f 3/11/11 4/12/12 5/13/13
s 5
f 4/14/14 1/15/15 5/16/16
s 6
f 6/17/17 9/18/18 8/19/19 7/20/20
s 7
f 6/21/21 7/22/22 10/23/23
s 8
f 7/24/24 8/25/25 10/26/26
s 9
f 8/27/27 9/28/28 10/29/29
s 10
f 9/30/30 6/31/31 10/32/32
s 11
f 11/33/33 14/34/34 13/35/35 12/36/36
s 12
f 11/37/37 12/38/38 15/39/39
s 13
f 12/40/40 13/41/41 15/42/42
s 14
f 13/43/43 14/44/44 15/45/45
s 15
f 14/46/46 11/47/47 15/48/48
s 16
f 16/49/49 19/50/50 18/51/51 17/52/52
s 17
f 16/53/53 17/54/54 20/55/55
s 18
f 17/56/56 18/57/57 20/58/58
s 19
f 18/59/59 19/60/60 20/61/61
s 20
f 19/62/62 16/63/63 20/64/64
s 21
f 21/65/65 22/66/66 24/67/67 23/68/68
s 22
f 23/69/69 24/70/70 26/71/71 25/72/72
s 23
f 25/73/73 26/74/74 28/75/75 27/76/76
s 24
f 27/77/77 28/78/78 22/79/79 21/80/80
s 25
f 22/81/81 28/82/82 26/83/83 24/84/84
s 26
f 27/85/85 21/86/86 23/87/87 25/88/88

# 26 faces
